<svg width="16" height="16" viewBox="0 0 16 16" fill="none" xmlns="http://www.w3.org/2000/svg">
<path fill-rule="evenodd" clip-rule="evenodd" d="M13.2226 15.4818L11 14L8.27735 15.8151C8.1094 15.9271 7.8906 15.9271 7.72265 15.8151L5 14L2.77735 15.4818C2.44507 15.7033 2 15.4651 2 15.0657V1.5C2 0.671573 2.67157 0 3.5 0H12.5C13.3284 0 14 0.671573 14 1.5V15.0657C14 15.4651 13.5549 15.7033 13.2226 15.4818ZM10.7226 12.983L8 14.7981L5.27735 12.983C5.1094 12.8711 4.8906 12.8711 4.72265 12.983L3 14.1315V1.5C3 1.22386 3.22386 1 3.5 1H12.5C12.7761 1 13 1.22386 13 1.5V14.1315L11.2774 12.983C11.1094 12.8711 10.8906 12.8711 10.7226 12.983ZM5.5 3C5.22386 3 5 3.22386 5 3.5C5 3.77614 5.22386 4 5.5 4H10.5C10.7761 4 11 3.77614 11 3.5C11 3.22386 10.7761 3 10.5 3H5.5ZM5.5 6C5.22386 6 5 6.22386 5 6.5C5 6.77614 5.22386 7 5.5 7H10.5C10.7761 7 11 6.77614 11 6.5C11 6.22386 10.7761 6 10.5 6H5.5ZM8 9.5C8 9.22386 8.22386 9 8.5 9H10.5C10.7761 9 11 9.22386 11 9.5C11 9.77614 10.7761 10 10.5 10H8.5C8.22386 10 8 9.77614 8 9.5Z" fill="white"/>
</svg>
