<svg width="16" height="16" viewBox="0 0 16 16" fill="none" xmlns="http://www.w3.org/2000/svg">
<path fill-rule="evenodd" clip-rule="evenodd" d="M3.5 2C2.67157 2 2 2.67157 2 3.5V12.5C2 13.3284 2.67157 14 3.5 14H7H8H12.5C13.3284 14 14 13.3284 14 12.5V7V3.5C14 2.67157 13.3284 2 12.5 2H8H7H3.5ZM3.5 1C2.11929 1 1 2.11929 1 3.5V12.5C1 13.8807 2.11929 15 3.5 15H7H8H12.5C13.8807 15 15 13.8807 15 12.5V7V3.5C15 2.11929 13.8807 1 12.5 1H8H7H3.5Z" fill="white"/>
<path fill-rule="evenodd" clip-rule="evenodd" d="M8 1H7V15H8V7H15V6H8V1Z" fill="white"/>
</svg>
