<svg width="16" height="16" viewBox="0 0 16 16" fill="none" xmlns="http://www.w3.org/2000/svg">
<g clip-path="url(#clip0_1507_2837)">
<path fill-rule="evenodd" clip-rule="evenodd" d="M0.914281 0V15.0857H2.28516V8.22851C2.28516 7.97603 2.48982 7.77136 2.7423 7.77136H5.48514C5.73762 7.77136 5.94228 7.97603 5.94228 8.22851V15.0857H6.85693V6.39989C6.85693 6.14741 7.0616 5.94275 7.31407 5.94275H10.0569C10.3094 5.94275 10.5141 6.14741 10.5141 6.39989V15.0857H11.4287V2.74279C11.4287 2.49031 11.6334 2.28564 11.8859 2.28564H14.6287C14.8812 2.28564 15.0858 2.49031 15.0858 2.74279V15.0857H15.9999V16H0.457141C0.204671 16 0 15.7953 0 15.5429V0H0.914281ZM3.19944 15.0856V8.68565H5.028V15.0856H3.19944ZM7.77121 6.85703V15.0856H9.59978V6.85703H7.77121ZM12.343 15.0856V3.19993H14.1716V15.0856H12.343Z" fill="#63513D"/>
</g>
<defs>
<clipPath id="clip0_1507_2837">
<rect width="16" height="16" fill="white"/>
</clipPath>
</defs>
</svg>
