<svg width="16" height="16" viewBox="0 0 16 16" fill="none" xmlns="http://www.w3.org/2000/svg">
<g clip-path="url(#clip0_1375_3040)">
<path fill-rule="evenodd" clip-rule="evenodd" d="M15.6156 6.79278C15.8736 7.14139 16.0072 7.56647 15.995 8C16.0078 8.43334 15.8748 8.85842 15.6173 9.20722C15.7013 9.44582 15.733 9.69972 15.71 9.95164C15.6624 10.5582 15.3553 11.1801 14.872 11.5034C14.8764 11.652 14.8607 11.8006 14.8253 11.945C14.6721 12.5822 14.1336 13.2611 13.453 13.4534C13.4368 13.5112 13.4172 13.568 13.3943 13.6235C13.1033 14.3245 12.2968 14.8741 11.5566 14.8741H11.5005C11.1636 15.3744 10.4728 15.7189 9.79217 15.7189C9.5925 15.7207 9.39408 15.6873 9.206 15.6202C8.85212 15.8674 8.43087 16 7.9992 16C7.56753 16 7.14627 15.8674 6.7924 15.6202C6.60431 15.6873 6.40589 15.7207 6.20623 15.7189C5.52732 15.7189 4.83821 15.3744 4.49791 14.8741H4.44176C3.7016 14.8741 2.89423 14.3245 2.60412 13.6235C2.58122 13.568 2.56162 13.5112 2.54542 13.4534C1.86651 13.2611 1.32628 12.5813 1.17315 11.945C1.13773 11.8006 1.12199 11.652 1.12635 11.5034C0.643124 11.1801 0.336001 10.5582 0.288358 9.95164C0.265367 9.69972 0.296997 9.4458 0.381091 9.20722C0.122733 8.85875 -0.0111811 8.43364 0.000802162 8C-0.0116716 7.56656 0.121637 7.14147 0.379389 6.79278C0.295296 6.5542 0.263665 6.30028 0.286657 6.04836C0.334299 5.44177 0.641422 4.81987 1.12465 4.49658C1.12027 4.34796 1.13601 4.19944 1.17144 4.05504C1.32458 3.41782 1.86311 2.73892 2.54372 2.54665C2.55993 2.48883 2.57953 2.43201 2.60242 2.37649C2.89338 1.67547 3.6999 1.12588 4.44005 1.12588H4.4962C4.8331 0.625636 5.52392 0.28108 6.20453 0.28108C6.40419 0.279327 6.60261 0.312732 6.7907 0.379767C7.14457 0.132565 7.56583 0 7.9975 0C8.42916 0 8.85042 0.132565 9.2043 0.379767C9.39238 0.312732 9.5908 0.279327 9.79047 0.28108C10.4694 0.28108 11.1585 0.625636 11.4988 1.12588H11.5549C12.2951 1.12588 13.1016 1.67547 13.3926 2.37649C13.4154 2.43202 13.435 2.48883 13.4513 2.54665C14.1302 2.73892 14.6704 3.41867 14.8235 4.05504C14.859 4.19944 14.8747 4.34796 14.8703 4.49658C15.3536 4.81987 15.6607 5.44177 15.7083 6.04836C15.7313 6.30028 15.6997 6.5542 15.6156 6.79278ZM13.8367 10.9708C14.8525 11.4881 15.596 9.19957 14.4705 9.02091C15.596 9.20297 15.596 6.79703 14.4747 6.97484C15.6003 6.79618 14.8567 4.50764 13.8409 5.0249C14.8567 4.50679 13.4419 2.56026 12.6363 3.36593C13.4445 2.56026 11.4945 1.14545 10.9773 2.16125C11.4945 1.14545 9.206 0.401887 9.02734 1.52744C9.20515 0.401887 6.79835 0.401887 6.97701 1.52744C6.79495 0.401887 4.50556 1.14545 5.02282 2.157C4.50471 1.1412 2.55818 2.556 3.36385 3.36167C2.55818 2.55345 1.14337 4.50339 2.15917 5.02065C1.14337 4.50339 0.399807 6.79192 1.52536 6.97058C0.399807 6.79278 0.399807 9.19957 1.52536 9.02091C0.399807 9.19957 1.14337 11.4881 2.15917 10.9708C1.14337 11.489 2.55818 13.4355 3.36385 12.6298C2.55563 13.4355 4.50556 14.8503 5.02282 13.8345C4.50556 14.8503 6.7941 15.5939 6.97276 14.4683C6.79495 15.5939 9.20174 15.5939 9.02308 14.4683C9.20174 15.5939 11.4903 14.8503 10.973 13.8345C11.4911 14.8503 13.4377 13.4355 12.632 12.6298C13.4377 13.438 14.8525 11.4881 13.8367 10.9708ZM9.45105 6.07296L12.92 6.44771L10.5078 8.96728L11.2161 12.3888L8.07322 10.8735L5.04273 12.6036L5.51242 9.14591L2.93039 6.79873L6.36435 6.17414L7.7984 3L9.45105 6.07296ZM6.30439 10.7286L8.03199 9.74177L9.82955 10.6049L9.42482 8.65624L10.7989 7.21845L8.81897 6.99859L7.8771 5.24975L7.05889 7.06355L5.10145 7.41831L6.57172 8.75617L6.30439 10.7286Z" fill="white"/>
</g>
<defs>
<clipPath id="clip0_1375_3040">
<rect width="16" height="16" fill="white"/>
</clipPath>
</defs>
</svg>
