<svg width="16" height="16" viewBox="0 0 16 16" fill="none" xmlns="http://www.w3.org/2000/svg">
<path fill-rule="evenodd" clip-rule="evenodd" d="M8.47065 1.1344C8.47018 1.13067 8.46968 1.12693 8.46915 1.1232L8.4074 0.688823C8.35241 0.301954 8.03686 0 7.6461 0C7.6461 0 7.64609 0 7.64609 0C7.25532 0 6.93977 0.301956 6.88478 0.68883L6.78933 1.36034C6.72239 1.78748 6.38528 2.11656 5.96891 2.23753C5.8495 2.27223 5.73164 2.31053 5.61543 2.35231C5.20313 2.50058 4.73146 2.42929 4.4266 2.11459L3.96436 1.63744C3.7433 1.40924 3.41544 1.32783 3.1307 1.42879C3.11856 1.4331 3.10649 1.43774 3.09451 1.44271C3.04169 1.46464 2.99063 1.49307 2.94231 1.52825C2.62655 1.75815 2.54987 2.18726 2.73269 2.53242L2.93836 2.92069C2.9398 2.92341 2.94126 2.92612 2.94273 2.92881L3.04457 3.12108C3.24952 3.50801 3.17192 3.97833 2.90344 4.32422C2.82719 4.42245 2.75393 4.52312 2.68379 4.62608C2.43744 4.9877 2.01434 5.20652 1.58331 5.13122L1.36743 5.09351C1.36493 5.09304 1.36243 5.09259 1.35992 5.09215L0.926283 5.0164C0.541261 4.94913 0.157329 5.1527 0.0364866 5.52441C-0.023913 5.71019 -0.00677831 5.90212 0.069319 6.06908C0.0932359 6.12155 0.122977 6.17156 0.157966 6.21814C0.234303 6.31976 0.335618 6.40504 0.455929 6.46396L1.05565 6.75763C1.44848 6.94999 1.66229 7.37547 1.64888 7.81267C1.64697 7.87488 1.64601 7.93733 1.64601 8C1.64601 8.06269 1.64698 8.12515 1.64888 8.18738C1.6623 8.62457 1.44849 9.05006 1.05565 9.24242L0.861623 9.33744C0.858167 9.33906 0.854716 9.34072 0.85127 9.3424L0.455909 9.53601C0.10501 9.70783 -0.0843272 10.104 0.036468 10.4755C0.0537018 10.5285 0.0762869 10.5781 0.103463 10.624C0.266824 10.8998 0.596159 11.0413 0.926294 10.9836L1.58334 10.8688C2.01437 10.7935 2.43746 11.0123 2.68381 11.374C2.75395 11.4769 2.82721 11.5776 2.90346 11.6758C3.17193 12.0217 3.24954 12.492 3.04459 12.8789L2.94437 13.0681C2.94233 13.0718 2.94032 13.0755 2.93834 13.0793L2.73267 13.4676C2.54984 13.8127 2.62653 14.2418 2.94228 14.4717C2.95216 14.4789 2.96216 14.4858 2.97226 14.4925C2.99504 14.5074 3.01837 14.521 3.04214 14.5331C3.34503 14.6877 3.71998 14.6149 3.9644 14.3626L4.42664 13.8854C4.7315 13.5707 5.20316 13.4994 5.61547 13.6477C5.73166 13.6895 5.84951 13.7278 5.9689 13.7625C6.38981 13.8848 6.72973 14.2197 6.79141 14.6537L6.82086 14.8608C6.82133 14.8646 6.82183 14.8683 6.82237 14.872L6.88479 15.3112C6.93013 15.6301 7.15259 15.8914 7.44829 15.9733C7.51123 15.9907 7.5775 16 7.64609 16C7.64609 16 7.6461 16 7.6461 16C7.64611 16 7.64612 16 7.64612 16C7.69495 16 7.7426 15.9953 7.78872 15.9863C8.11166 15.9232 8.35929 15.6497 8.40741 15.3112L8.50288 14.6395C8.56987 14.2125 8.90696 13.8834 9.32328 13.7625C9.44269 13.7278 9.56055 13.6895 9.67676 13.6477C10.0891 13.4994 10.5607 13.5707 10.8656 13.8854L11.3278 14.3626C11.519 14.5599 11.79 14.6475 12.044 14.6023C12.1062 14.5912 12.1675 14.5721 12.2263 14.5447C12.269 14.5248 12.3104 14.5005 12.3499 14.4717C12.6656 14.2419 12.7423 13.8127 12.5595 13.4676L12.3538 13.0793C12.3524 13.0765 12.3509 13.0738 12.3494 13.0711L12.2476 12.8789C12.0427 12.492 12.1203 12.0217 12.3887 11.6758C12.465 11.5775 12.5383 11.4769 12.6084 11.3739C12.8548 11.0123 13.2778 10.7935 13.7089 10.8688L13.9249 10.9065C13.9273 10.907 13.9298 10.9074 13.9323 10.9078L14.3659 10.9836C14.7509 11.0509 15.1349 10.8473 15.2557 10.4756C15.2935 10.3595 15.3009 10.2409 15.2826 10.1276C15.2497 9.92365 15.1333 9.73651 14.96 9.61051C14.9215 9.5825 14.8801 9.55752 14.8363 9.53604L14.4409 9.34245L14.2365 9.24237C13.8437 9.05001 13.6299 8.62453 13.6433 8.18733C13.6452 8.12512 13.6462 8.06267 13.6462 8C13.6462 7.93731 13.6452 7.87485 13.6433 7.81262C13.6299 7.37543 13.8437 6.94994 14.2365 6.75758L14.4306 6.66254C14.4341 6.66092 14.4375 6.65927 14.4409 6.65759L14.8363 6.46399C15.1872 6.29216 15.3765 5.89603 15.2557 5.52446C15.2406 5.47797 15.2214 5.43411 15.1985 5.39308C15.1843 5.36745 15.1686 5.34292 15.1517 5.31955C14.9788 5.08116 14.6727 4.96278 14.3659 5.01638L13.7088 5.13117C13.2778 5.20648 12.8547 4.98766 12.6084 4.62604C12.5382 4.52309 12.465 4.42242 12.3887 4.3242C12.1203 3.97831 12.0427 3.50799 12.2476 3.12106L12.3478 2.93181C12.3499 2.92814 12.3519 2.92444 12.3539 2.92071L12.5595 2.53243C12.7423 2.18728 12.6657 1.75817 12.3499 1.52827C12.3295 1.51343 12.3086 1.49978 12.2873 1.48732C11.9785 1.30652 11.5823 1.37466 11.3278 1.63742L10.8656 2.11458C10.5607 2.42928 10.089 2.50056 9.67673 2.3523C9.56053 2.31052 9.44268 2.27222 9.32329 2.23753C8.90238 2.11524 8.56246 1.78028 8.50078 1.34632L8.47065 1.1344ZM7.50933 3.3353C4.99529 3.4077 2.97951 5.46844 2.97951 8C2.97951 10.5773 5.06885 12.6667 7.64618 12.6667C7.65496 12.6667 7.66373 12.6666 7.67251 12.6666C10.2376 12.6523 12.3127 10.5685 12.3127 8C12.3127 5.42267 10.2233 3.33333 7.64601 3.33333C7.636 3.33333 7.62599 3.33336 7.616 3.33343C7.58034 3.33365 7.54478 3.33428 7.50933 3.3353Z" fill="white"/>
</svg>
