<svg width="32" height="32" viewBox="0 0 32 32" fill="none" xmlns="http://www.w3.org/2000/svg">
<path d="M16.3188 16.5002L20.8305 11.9886C21.0566 11.7625 21.0566 11.3959 20.8305 11.1698C20.6044 10.9437 20.2378 10.9437 20.0117 11.1698L15.5 15.6815L10.9883 11.1698C10.7622 10.9437 10.3957 10.9437 10.1696 11.1698C9.9435 11.3959 9.94347 11.7625 10.1696 11.9886L14.6813 16.5002L10.1696 21.0119C9.94347 21.238 9.94347 21.6046 10.1696 21.8307C10.3957 22.0568 10.7622 22.0568 10.9883 21.8307L15.5 17.319L20.0117 21.8307C20.2378 22.0568 20.6044 22.0568 20.8304 21.8307C21.0565 21.6046 21.0565 21.238 20.8304 21.0119L16.3188 16.5002Z" fill="#D64123"/>
</svg>
