<svg width="24" height="24" viewBox="0 0 24 24" fill="none" xmlns="http://www.w3.org/2000/svg">
<path fill-rule="evenodd" clip-rule="evenodd" d="M23 12C23 18.0751 18.0752 23 12 23C5.9248 23 1 18.0751 1 12C1 5.92489 5.9248 1 12 1C18.0752 1 23 5.92489 23 12ZM24 12C24 18.6274 18.6273 24 12 24C5.37272 24 0 18.6274 0 12C0 5.37256 5.37272 0 12 0C18.6273 0 24 5.37256 24 12ZM3.74609 11.6969C2.98307 11.9543 2.65788 12.7417 2.66667 13.6297C2.67383 14.018 2.73633 14.403 2.85254 14.7721C2.96582 15.1471 3.13444 15.5016 3.35221 15.8231C3.86784 16.5846 4.63965 17.0416 5.56413 16.7217C5.59277 16.7415 5.62663 16.752 5.66146 16.752C5.69596 16.752 5.72982 16.7415 5.75879 16.7217L5.81445 16.7004C5.95117 16.655 6.08854 16.6097 6.22624 16.5667L6.3405 16.5313C6.43945 16.501 6.53548 16.4714 6.62858 16.4436L6.74023 16.411L6.79004 16.6395C6.93815 17.4177 7.13411 18.1854 7.37598 18.9379L7.44043 19.1237C7.4987 19.2906 7.55859 19.4619 7.62402 19.6269C7.72624 19.8849 7.84115 20.1274 7.98242 20.3132C8.27702 20.6971 8.66504 20.825 9.23926 20.3468H9.24805C9.29655 20.2989 9.35156 20.249 9.40723 20.1988L9.44727 20.1625C9.73014 19.9111 10.0114 19.6614 10.0964 19.2044C10.1022 19.1846 10.1022 19.1633 10.0964 19.1435C10.0127 18.8983 9.85156 18.8252 9.64518 18.7338C9.43848 18.6424 9.23047 18.551 9.28483 18.1047L9.29785 18.0027C9.31869 17.9049 9.3291 17.8052 9.32943 17.7053C9.32975 17.6409 9.32552 17.5763 9.31706 17.5122C9.28483 17.3888 9.21289 17.3203 9.06641 17.1817L9.03125 17.1482C8.97754 17.0869 8.93685 17.0146 8.91146 16.9359C8.88639 16.8572 8.87728 16.7738 8.88477 16.6912C8.89095 16.5541 8.90885 16.4181 8.93815 16.2847C8.96517 16.1606 9.00228 16.0388 9.04883 15.9206C11.3467 15.595 12.7643 16.0145 13.8932 16.3488L13.9137 16.3547C12.8268 15.1285 11.9362 13.3449 11.3193 11.5172C10.7188 9.73202 10.3776 7.88753 10.3776 6.47249C9.41797 7.91341 7.74967 10.0352 4.04948 11.4486L4.00684 11.4653C3.9515 11.4804 3.89909 11.5063 3.85319 11.5415C3.83171 11.5625 3.81217 11.5857 3.79525 11.6107C3.78418 11.6274 3.77409 11.645 3.7653 11.6633L3.74609 11.6969ZM15.3737 5.87345C15.43 5.85824 15.4831 5.83138 15.5293 5.79468L17.6416 4.16952C17.6891 4.13363 17.7295 4.08822 17.7601 4.03589C17.7904 3.98356 17.8105 3.92537 17.819 3.86491C17.8376 3.74561 17.8102 3.62354 17.7428 3.52523V3.51758C17.6722 3.41829 17.5671 3.35197 17.4499 3.33333C17.335 3.31738 17.2184 3.3479 17.1247 3.41862C16.7633 3.68994 16.4027 3.96566 16.042 4.24292C15.6921 4.51188 15.3424 4.78223 14.9919 5.05143C14.9463 5.08765 14.9082 5.13232 14.8796 5.18262C14.8503 5.23389 14.8304 5.29102 14.8216 5.35116C14.8138 5.4043 14.8151 5.45785 14.8249 5.5096C14.8369 5.57389 14.8623 5.63534 14.8994 5.68962L14.9098 5.70329C14.9362 5.74064 14.9681 5.77352 15.0042 5.80086C15.015 5.80908 15.0264 5.81681 15.0381 5.82397C15.0713 5.84456 15.1071 5.86043 15.1442 5.87126C15.1628 5.87671 15.182 5.88094 15.2012 5.88379C15.2588 5.89225 15.3174 5.88875 15.3737 5.87345ZM17.6742 14.5445C17.7272 14.5688 17.7842 14.582 17.8424 14.5833L17.8467 14.5771L20.2184 14.6243C20.2767 14.6255 20.335 14.6145 20.3893 14.592C20.4434 14.5695 20.4928 14.536 20.5348 14.4933C20.6198 14.407 20.6686 14.2894 20.6709 14.1659C20.6716 14.1002 20.6589 14.0357 20.6344 13.9765C20.613 13.9249 20.5827 13.8772 20.5443 13.836C20.4622 13.7476 20.3496 13.6965 20.2314 13.6937C19.9714 13.6886 19.7096 13.682 19.4476 13.6752C18.9173 13.6616 18.3851 13.648 17.8584 13.648C17.7998 13.6466 17.7415 13.6574 17.6872 13.6797C17.6325 13.702 17.583 13.7354 17.541 13.778C17.5137 13.8057 17.4899 13.8371 17.4704 13.8711C17.46 13.8892 17.4508 13.908 17.443 13.9276C17.4202 13.9837 17.4085 14.044 17.4089 14.105V14.1156C17.4079 14.1758 17.4183 14.2356 17.4398 14.2915C17.4609 14.3474 17.4928 14.3984 17.5332 14.4416C17.5732 14.4852 17.6211 14.5202 17.6742 14.5445ZM17.7389 12.1702C17.7946 12.1887 17.8532 12.1956 17.9111 12.1903C18.6247 12.1493 19.4053 12.0883 20.1159 12.0152C20.2337 12.005 20.3431 11.947 20.4206 11.8538C20.459 11.8079 20.4883 11.7545 20.5065 11.6967C20.5251 11.6388 20.5319 11.5778 20.5273 11.5172C20.5179 11.3953 20.4629 11.2822 20.3743 11.2022C20.2855 11.1222 20.1699 11.0815 20.0527 11.0891C19.4505 11.1292 18.8398 11.1804 18.2354 11.2313L17.8408 11.2643C17.7253 11.2759 17.6182 11.3336 17.5426 11.4253C17.4671 11.517 17.4284 11.6357 17.4352 11.7563V11.7669C17.4391 11.8274 17.4548 11.8865 17.4808 11.9406C17.5072 11.9947 17.5436 12.043 17.5879 12.0824C17.6322 12.1217 17.6836 12.1516 17.7389 12.1702ZM17.4202 9.98267C17.4788 9.98975 17.5381 9.98486 17.5947 9.9681L17.5934 9.96509L19.877 9.28727C19.9909 9.25293 20.0872 9.1731 20.1449 9.06527C20.2025 8.95744 20.2168 8.83024 20.1846 8.71151C20.1507 8.59489 20.0745 8.49658 19.9723 8.43734C19.9216 8.40763 19.8656 8.38867 19.8076 8.38159C19.75 8.37459 19.6911 8.37956 19.6354 8.39624C18.8721 8.60946 18.112 8.86532 17.3486 9.07406C17.2936 9.0909 17.2425 9.11825 17.1982 9.15422C17.1507 9.19263 17.1107 9.2408 17.0807 9.29639C17.0521 9.34912 17.0339 9.40731 17.027 9.46745C17.0202 9.52759 17.0251 9.58854 17.041 9.64673C17.057 9.70565 17.084 9.76066 17.1208 9.80876C17.1367 9.82967 17.1543 9.84912 17.1732 9.86686C17.1979 9.88981 17.2249 9.90991 17.2539 9.92668C17.3053 9.95654 17.362 9.97559 17.4202 9.98267ZM16.5036 7.83455C16.5622 7.83032 16.6195 7.81421 16.6719 7.78695L18.8678 6.64461C18.9733 6.58936 19.054 6.49308 19.0918 6.37655C19.111 6.31877 19.1188 6.25757 19.1146 6.19661C19.112 6.15747 19.1048 6.1189 19.0928 6.08179C19.0859 6.0612 19.0778 6.0411 19.0684 6.02165C19.043 5.96631 19.0072 5.91691 18.9629 5.8763C18.9189 5.83561 18.8672 5.80469 18.8115 5.78524C18.7555 5.76571 18.6963 5.75814 18.6377 5.76294C18.5788 5.76774 18.5215 5.78475 18.4694 5.81299L16.2721 6.95378C16.1663 7.00968 16.0856 7.10645 16.0479 7.22339C16.0374 7.25545 16.0303 7.28866 16.0267 7.32218C16.0241 7.34912 16.0238 7.3763 16.0257 7.40348C16.0299 7.46444 16.0459 7.52384 16.0729 7.57829C16.099 7.63289 16.1351 7.68164 16.1794 7.72168C16.2236 7.76172 16.2751 7.79224 16.3307 7.81169C16.3864 7.83105 16.4453 7.83879 16.5036 7.83455ZM11.3311 5.09709C11.3122 5.11686 11.2917 5.13827 11.2725 5.16105C10.959 6.07495 11.0924 7.81437 11.5612 9.69548L11.583 9.68327C11.7881 9.57821 12.3066 9.57821 12.8281 9.76099C14.1071 10.2164 14.611 12.1812 13.5856 13.3053C13.3805 13.5261 13.1667 13.6556 12.9997 13.6222C13.653 14.894 14.4294 15.9753 15.3066 16.6273C15.3193 16.6366 15.3317 16.6467 15.3434 16.6577C15.474 16.6378 15.598 16.5855 15.7051 16.5055L15.7184 16.4948C15.9733 16.2404 16.1286 15.8551 16.2031 15.3783C16.401 14.0973 16.0055 12.1248 15.3464 10.2346C14.6872 8.3444 13.7614 6.54557 12.8825 5.60278C12.5234 5.22046 12.1706 4.9707 11.8408 4.91585C11.7806 4.90023 11.7181 4.896 11.6566 4.90308C11.6198 4.90731 11.5833 4.91569 11.5479 4.92806C11.4652 4.96802 11.3913 5.02563 11.3311 5.09709Z" fill="#6F2277"/>
</svg>
