<svg width="24" height="24" viewBox="0 0 24 24" fill="none" xmlns="http://www.w3.org/2000/svg">
<path d="M12.0005 1.18138e-05C14.7778 -0.000782071 17.4695 0.961506 19.6168 2.72289C21.7642 4.48428 23.2343 6.93578 23.7767 9.65963C24.3191 12.3835 23.9002 15.2111 22.5914 17.6607C21.2826 20.1103 19.1648 22.0303 16.599 23.0935C14.0333 24.1567 11.1782 24.2972 8.5204 23.4913C5.8626 22.6853 3.5665 20.9826 2.02338 18.6734C0.480261 16.3642 -0.214387 13.5914 0.0578076 10.8275C0.330002 8.06351 1.5522 5.47945 3.51612 3.51564C4.62876 2.39929 5.95117 1.51397 7.40725 0.910616C8.86334 0.307266 10.4244 -0.00220387 12.0005 1.18138e-05ZM4.49268 19.0996C5.13526 18.7656 5.89112 18.6836 6.64112 18.6035C7.98682 18.457 9.33252 18.3125 9.84034 16.3633C9.84249 16.3517 9.84644 16.3405 9.85205 16.3301C9.23291 15.7969 8.71924 15.3359 8.61963 14.2442H8.56299C8.43244 14.2433 8.30418 14.2097 8.18995 14.1465C8.0032 14.0289 7.85936 13.8543 7.77979 13.6484C7.68271 13.407 7.62787 13.1507 7.61768 12.8906C7.61768 12.8106 7.61768 12.6582 7.61768 12.5137C7.61768 12.3692 7.61768 12.2617 7.63721 12.1934C7.64099 12.1726 7.64688 12.1524 7.65479 12.1328C7.7876 11.7637 7.99073 11.6426 8.26026 11.6504L8.08252 11.5332C7.98682 10.334 8.27784 8.25587 6.96534 7.86134C9.42823 4.81837 12.2661 3.17384 14.3989 5.87111C16.9653 6.00587 17.9966 10.0859 15.9478 11.8027L15.936 11.9043C16.0136 11.8805 16.0935 11.8648 16.1743 11.8574C16.3184 11.8433 16.4636 11.8711 16.5923 11.9375C16.662 11.9739 16.7238 12.0239 16.7738 12.0847C16.8238 12.1454 16.861 12.2156 16.8833 12.291C16.9371 12.4913 16.9324 12.7028 16.8696 12.9004C16.7759 13.1953 16.6567 13.5352 16.5454 13.8223C16.5128 13.9457 16.4449 14.057 16.3501 14.1426C16.2245 14.2322 16.0692 14.27 15.9165 14.2481H15.8267C15.8071 15.2617 15.311 15.7266 14.6548 16.3359L14.5552 16.4297C15.1411 18.0723 16.3462 18.2754 17.5513 18.4785C18.2583 18.5957 18.9634 18.7149 19.5649 19.0645C20.9429 17.5908 21.8596 15.7462 22.2021 13.7579C22.5446 11.7697 22.2979 9.72468 21.4925 7.87488C20.6871 6.02509 19.3581 4.45133 17.6693 3.34752C15.9805 2.24371 14.0057 1.65808 11.9882 1.66279C9.97066 1.66749 7.99859 2.26233 6.31496 3.374C4.63133 4.48568 3.30971 6.06562 2.51294 7.91915C1.71617 9.77268 1.47907 11.8188 1.83084 13.8054C2.18261 15.7921 3.1079 17.6324 4.49268 19.0996Z" fill="#D64123"/>
</svg>
