<svg width="16" height="16" viewBox="0 0 16 16" fill="none" xmlns="http://www.w3.org/2000/svg">
<g clip-path="url(#clip0_1375_3046)">
<path d="M1.24356 2.07126C1.95854 2.07126 2.54043 2.66545 2.54043 3.39559C2.54043 3.53287 2.64959 3.64457 2.78399 3.64457C2.91838 3.64457 3.02755 3.53287 3.02755 3.39559C3.02755 2.66545 3.60925 2.07126 4.32441 2.07126C4.45881 2.07126 4.56797 1.95976 4.56797 1.82228C4.56797 1.68481 4.45881 1.5733 4.32441 1.5733C3.60944 1.5733 3.02755 0.979115 3.02755 0.248979C3.02755 0.111697 2.91838 0 2.78399 0C2.64959 0 2.54043 0.111697 2.54043 0.248979C2.54043 0.979115 1.95872 1.5733 1.24356 1.5733C1.10916 1.5733 1 1.68481 1 1.82228C1 1.95976 1.10916 2.07126 1.24356 2.07126ZM2.1421 1.82247C2.40827 1.66343 2.62847 1.4387 2.78399 1.16699C2.93988 1.4387 3.15989 1.66343 3.42588 1.82247C3.16007 1.98152 2.93988 2.20625 2.78399 2.47815C2.6294 2.20988 2.40491 1.98019 2.1421 1.82247Z" fill="white"/>
<path d="M11.2436 2.07126C11.9584 2.07126 12.5402 2.66545 12.5402 3.39559C12.5402 3.53287 12.6494 3.64457 12.7836 3.64457C12.9182 3.64457 13.0275 3.53287 13.0275 3.39559C13.0275 2.66545 13.6091 2.07126 14.3244 2.07126C14.4586 2.07126 14.568 1.95976 14.568 1.82228C14.568 1.68481 14.4586 1.5733 14.3244 1.5733C13.6092 1.5733 13.0275 0.979115 13.0275 0.248979C13.0275 0.111697 12.9182 0 12.7836 0C12.6494 0 12.5402 0.111697 12.5402 0.248979C12.5402 0.979115 11.9585 1.5733 11.2436 1.5733C11.1092 1.5733 11 1.68481 11 1.82228C11 1.95976 11.1092 2.07126 11.2436 2.07126ZM12.1417 1.82247C12.4081 1.66343 12.6283 1.4387 12.7834 1.16699C12.9393 1.4387 13.1595 1.66343 13.4257 1.82247C13.1629 1.98038 12.9382 2.20988 12.7834 2.47815C12.6294 2.20988 12.4047 1.98019 12.1417 1.82247Z" fill="white"/>
<path d="M15.7565 9.57331C15.0418 9.57331 14.4599 8.97912 14.4599 8.24898C14.4599 8.1117 14.3505 8 14.2161 8C14.0817 8 13.9726 8.1117 13.9726 8.24898C13.9726 8.97912 13.391 9.57331 12.6759 9.57331C12.5417 9.57331 12.4321 9.685 12.4321 9.82229C12.4321 9.95957 12.5417 10.0713 12.6759 10.0713C13.3909 10.0713 13.9726 10.6655 13.9726 11.3958C13.9726 11.5331 14.0817 11.6446 14.2161 11.6446C14.3505 11.6446 14.4599 11.5331 14.4599 11.3958C14.4599 10.6656 15.0416 10.0713 15.7565 10.0713C15.8909 10.0713 16.0003 9.95957 16.0003 9.82229C16.0003 9.685 15.8909 9.57331 15.7565 9.57331ZM14.8582 9.82209C14.5924 9.98095 14.3722 10.2059 14.2163 10.4778C14.0621 10.2097 13.8374 9.98 13.5744 9.82209C13.8372 9.664 14.0621 9.43469 14.2163 9.16642C14.372 9.43851 14.592 9.66285 14.8582 9.82209Z" fill="white"/>
<path d="M0.243576 10.0829H0.260773C0.59985 10.0829 0.921169 10.2179 1.16529 10.4633C1.41221 10.712 1.5496 11.0431 1.55203 11.3971C1.55278 11.5336 1.66232 11.6444 1.7969 11.6444C1.86195 11.6436 1.92345 11.6175 1.96943 11.5697C2.01466 11.5224 2.03971 11.4597 2.03915 11.3933C2.03653 11.0401 2.16906 10.7067 2.41262 10.4543C2.65581 10.2022 2.9803 10.0615 3.32611 10.059C3.46032 10.0579 3.56892 9.94524 3.56799 9.80834C3.56705 9.66973 3.45471 9.56127 3.31247 9.56127C2.60291 9.56127 2.02139 8.97167 2.01597 8.24707C2.01504 8.11093 1.90494 8 1.77073 8C1.63633 8.00115 1.52792 8.1138 1.52867 8.25089C1.53128 8.6045 1.39913 8.93825 1.15594 9.19029C0.912758 9.44232 0.588074 9.58285 0.241707 9.58514C0.176284 9.58591 0.115347 9.61244 0.070112 9.6598C0.024503 9.70677 -0.000731535 9.76939 1.61539e-05 9.83622C0.00113769 9.97217 0.1103 10.0829 0.243576 10.0829ZM1.14398 9.82706C1.27539 9.74724 1.39595 9.65063 1.50325 9.53913C1.6111 9.42724 1.704 9.30237 1.77989 9.16738C1.93616 9.4343 2.16252 9.6619 2.42571 9.81694C2.1614 9.97789 1.94307 10.204 1.78942 10.4766C1.71166 10.3428 1.61671 10.2196 1.50717 10.1089C1.39801 9.9989 1.27613 9.90458 1.14398 9.82706Z" fill="white"/>
<path d="M7.68044 15.7524C7.68137 15.8889 7.79072 15.9999 7.92549 15.9999H7.92587C7.99092 15.9993 8.05204 15.9727 8.09746 15.9258C8.14326 15.878 8.16831 15.8154 8.16756 15.749C8.16494 15.395 8.29747 15.0612 8.54028 14.8096C8.78347 14.5571 9.10796 14.4168 9.45433 14.4147C9.58854 14.4136 9.69714 14.3009 9.69621 14.1638C9.69527 14.0254 9.58331 13.9169 9.44106 13.9169C8.7315 13.9169 8.1498 13.3273 8.14419 12.6023C8.14326 12.467 8.03316 12.3562 7.89876 12.3555C7.76437 12.3566 7.65614 12.4693 7.65707 12.6064C7.65969 12.96 7.52754 13.2937 7.28416 13.5454C7.04116 13.7978 6.71667 13.9381 6.37011 13.9402C6.30506 13.941 6.24413 13.9673 6.19852 14.0149C6.15291 14.0619 6.12805 14.1245 6.12842 14.1911C6.12954 14.3297 6.24151 14.4382 6.38376 14.4382C7.0935 14.4382 7.67502 15.0278 7.68044 15.7524ZM7.27201 14.1831C7.40267 14.1033 7.52361 14.0067 7.63128 13.8952C7.73932 13.7827 7.83241 13.6578 7.90792 13.523C8.06419 13.7896 8.28999 14.0164 8.55299 14.1718C8.42196 14.2513 8.30139 14.3483 8.19317 14.4601C8.08531 14.572 7.9926 14.6969 7.91671 14.8319C7.75969 14.5623 7.53856 14.3397 7.27201 14.1831Z" fill="white"/>
<path d="M4.72516 8.75951L4.04254 13.6793C4.02685 13.7915 4.07701 13.9018 4.1699 13.9595C4.26093 14.017 4.38003 14.0121 4.46735 13.9459L7.99979 11.25L11.5322 13.9459C11.5791 13.9813 11.634 14 11.6908 14C11.7395 14 11.7874 13.986 11.8297 13.9597C11.9226 13.9011 11.9727 13.7911 11.9568 13.6791L11.2746 8.75929L14.8962 5.82208C14.9825 5.75229 15.0193 5.63597 14.9902 5.52612C14.9611 5.41605 14.8725 5.33592 14.7635 5.32213L10.0345 4.71642L8.24894 0.17426C8.20745 0.0682822 8.10981 0 8.00021 0C7.8906 0 7.79296 0.0682822 7.75147 0.17426L5.96574 4.71664L1.23627 5.32235C1.12769 5.33613 1.03873 5.41648 1.00983 5.52633C0.980725 5.63619 1.01747 5.7525 1.10396 5.82229L4.72516 8.75951ZM8.26896 7.35703V1.70425L9.59665 5.08196C9.63401 5.17566 9.71678 5.24157 9.81318 5.25364L13.4373 5.71804L8.26896 7.35703ZM13.4177 6.31082L10.8213 8.41659C10.7452 8.47841 10.7064 8.579 10.7204 8.67873L11.2482 12.4819L8.41924 7.89596L13.4177 6.31082ZM5.31862 12.6005L8 8.25417L10.6814 12.6005L8.15873 10.6757C8.11229 10.64 8.05738 10.621 7.99979 10.621C7.9422 10.621 7.88771 10.64 7.84085 10.6757L5.31862 12.6005ZM2.56272 5.71804L6.18743 5.25364C6.28404 5.24157 6.36661 5.17544 6.40376 5.08153L7.73145 1.70447V7.35724L2.56272 5.71804ZM5.17908 8.41659L2.58274 6.31082L7.58138 7.89596L4.75241 12.4819L5.28022 8.67873C5.29364 8.57857 5.25504 8.47819 5.17908 8.41659Z" fill="white"/>
</g>
<defs>
<clipPath id="clip0_1375_3046">
<rect width="16" height="16" fill="white"/>
</clipPath>
</defs>
</svg>
