<svg width="16" height="16" viewBox="0 0 16 16" fill="none" xmlns="http://www.w3.org/2000/svg">
<g clip-path="url(#clip0_1375_3012)">
<path d="M13.7902 15.2482H1.96394C1.17047 15.2482 0.533262 14.9393 0.215423 14.4007C-0.103172 13.8614 -0.064491 13.1573 0.32161 12.4701L6.28934 1.84199C6.67773 1.1486 7.255 0.751831 7.87325 0.751831C8.49073 0.751831 9.068 1.1486 9.45791 1.84045L15.4309 12.4708C15.8171 13.1588 15.8573 13.8622 15.5379 14.4007C15.2208 14.94 14.5829 15.2482 13.7902 15.2482ZM7.87399 1.86739C7.67753 1.86739 7.45223 2.06078 7.2694 2.38512L1.30246 13.014C1.11584 13.3476 1.07185 13.6473 1.18336 13.836C1.29563 14.0248 1.58009 14.1334 1.96394 14.1334H13.7902C14.1747 14.1334 14.4584 14.0256 14.5707 13.836C14.6815 13.648 14.6382 13.3483 14.4508 13.0148L8.47784 2.38512C8.29577 2.06078 8.06971 1.86739 7.87399 1.86739ZM7.87704 10.2158C7.56753 10.2158 7.31569 9.96615 7.31569 9.65797V4.6371C7.31569 4.32893 7.56753 4.07932 7.87704 4.07932C8.18654 4.07932 8.43837 4.32894 8.43837 4.6371V9.65797C8.43837 9.96616 8.18654 10.2158 7.87704 10.2158ZM7.87325 12.9423C8.3557 12.9423 8.74789 12.5525 8.74789 12.0717C8.74789 11.591 8.35572 11.2012 7.87325 11.2012C7.39004 11.2012 6.99861 11.591 6.99861 12.0717C6.99861 12.5525 7.39004 12.9423 7.87325 12.9423Z" fill="white"/>
</g>
<defs>
<clipPath id="clip0_1375_3012">
<rect width="16" height="16" fill="white"/>
</clipPath>
</defs>
</svg>
