<svg width="74" height="66" viewBox="0 0 74 66" fill="none" xmlns="http://www.w3.org/2000/svg">
    <path opacity="0.5" d="M10.8407 0L69.6642 58.8242L63.1604 65.3281L4.33691 6.50391L10.8407 0Z" fill="#63513D"/>
    <path opacity="0.5" fill-rule="evenodd" clip-rule="evenodd" d="M36.9995 9.55469C34.5764 9.55469 32.3448 9.78409 30.1976 10.1057L39.0772 18.9854C42.004 19.4298 44.7118 20.7987 46.8051 22.892C48.8984 24.9853 50.2672 27.6933 50.7116 30.6201L65.0925 45.001C71.4457 38.9783 73.9991 32.6797 73.9991 32.6797C73.9991 32.6797 64.7492 9.55469 36.9995 9.55469ZM20.0443 12.9602C5.34987 19.3779 0 32.6616 0 32.6616C0 32.6616 9.24989 55.8047 36.9995 55.8047C45.5519 55.8047 52.3314 53.5955 57.6402 50.5564L48.083 40.9993C46.7928 42.7213 45.1199 44.1196 43.1962 45.0838C41.2726 46.048 39.1513 46.5515 36.9995 46.5547C33.3197 46.5547 29.7905 45.0929 27.1885 42.4908C24.5864 39.8887 23.1247 36.3596 23.1247 32.6797C23.1279 30.528 23.6314 28.4064 24.5956 26.4828C25.5597 24.5592 26.9579 22.8862 28.6799 21.596L20.0443 12.9602Z" fill="#63513D"/>
</svg>
