<svg width="15" height="13" viewBox="0 0 15 13" fill="none" xmlns="http://www.w3.org/2000/svg">
<path d="M9.3125 11.125H7.5625C7.31641 11.125 7.125 11.3438 7.125 11.5625V12.4375C7.125 12.6836 7.31641 12.875 7.5625 12.875H9.3125C9.53125 12.875 9.75 12.6836 9.75 12.4375V11.5625C9.75 11.3438 9.53125 11.125 9.3125 11.125ZM5.8125 9.375H4.5V1.0625C4.5 0.84375 4.28125 0.625 4.0625 0.625H3.1875C2.94141 0.625 2.75 0.84375 2.75 1.0625V9.375H1.4375C1.02734 9.375 0.835938 9.86719 1.10938 10.1406L3.29688 12.7656C3.37891 12.8477 3.48828 12.875 3.625 12.875C3.73438 12.875 3.84375 12.8477 3.92578 12.7656L6.11328 10.1406C6.38672 9.86719 6.19531 9.375 5.8125 9.375ZM12.8125 4.125H7.5625C7.31641 4.125 7.125 4.34375 7.125 4.5625V5.4375C7.125 5.68359 7.31641 5.875 7.5625 5.875H12.8125C13.0312 5.875 13.25 5.68359 13.25 5.4375V4.5625C13.25 4.34375 13.0312 4.125 12.8125 4.125ZM11.0625 7.625H7.5625C7.31641 7.625 7.125 7.84375 7.125 8.0625V8.9375C7.125 9.18359 7.31641 9.375 7.5625 9.375H11.0625C11.2812 9.375 11.5 9.18359 11.5 8.9375V8.0625C11.5 7.84375 11.2812 7.625 11.0625 7.625ZM14.5625 0.625H7.5625C7.31641 0.625 7.125 0.84375 7.125 1.0625V1.9375C7.125 2.18359 7.31641 2.375 7.5625 2.375H14.5625C14.7812 2.375 15 2.18359 15 1.9375V1.0625C15 0.84375 14.7812 0.625 14.5625 0.625Z" fill="#63513D"/>
</svg>
