<svg width="24" height="24" viewBox="0 0 24 24" fill="none" xmlns="http://www.w3.org/2000/svg">
<g clip-path="url(#clip0_1739_444)">
<path d="M12 1.18138e-05C14.7773 -0.000782071 17.469 0.961506 19.6163 2.72289C21.7637 4.48428 23.2338 6.93578 23.7762 9.65963C24.3186 12.3835 23.8997 15.2111 22.5909 17.6607C21.2821 20.1103 19.1643 22.0303 16.5986 23.0935C14.0328 24.1567 11.1777 24.2972 8.51992 23.4913C5.86211 22.6853 3.56601 20.9826 2.02289 18.6734C0.479773 16.3642 -0.214875 13.5914 0.0573193 10.8275C0.329514 8.06351 1.55171 5.47945 3.51563 3.51564C4.62827 2.39929 5.95068 1.51397 7.40676 0.910616C8.86285 0.307266 10.4239 -0.00220387 12 1.18138e-05ZM4.49219 19.0996C5.13477 18.7656 5.89063 18.6836 6.64063 18.6035C7.98633 18.457 9.33204 18.3125 9.83985 16.3633C9.842 16.3517 9.84595 16.3405 9.85157 16.3301C9.23243 15.7969 8.71875 15.3359 8.61915 14.2442H8.5625C8.43195 14.2433 8.30369 14.2097 8.18946 14.1465C8.00271 14.0289 7.85887 13.8543 7.7793 13.6484C7.68222 13.407 7.62738 13.1507 7.61719 12.8906C7.61719 12.8106 7.61719 12.6582 7.61719 12.5137C7.61719 12.3692 7.61719 12.2617 7.63672 12.1934C7.6405 12.1726 7.64639 12.1524 7.6543 12.1328C7.78711 11.7637 7.99024 11.6426 8.25977 11.6504L8.08204 11.5332C7.98633 10.334 8.27735 8.25587 6.96485 7.86134C9.42774 4.81837 12.2656 3.17384 14.3984 5.87111C16.9648 6.00587 17.9961 10.0859 15.9473 11.8027L15.9355 11.9043C16.0131 11.8805 16.093 11.8648 16.1738 11.8574C16.318 11.8433 16.4631 11.8711 16.5918 11.9375C16.6616 11.9739 16.7233 12.0239 16.7733 12.0847C16.8233 12.1454 16.8605 12.2156 16.8828 12.291C16.9366 12.4913 16.9319 12.7028 16.8691 12.9004C16.7754 13.1953 16.6563 13.5352 16.5449 13.8223C16.5123 13.9457 16.4444 14.057 16.3496 14.1426C16.224 14.2322 16.0687 14.27 15.916 14.2481H15.8262C15.8066 15.2617 15.3105 15.7266 14.6543 16.3359L14.5547 16.4297C15.1406 18.0723 16.3457 18.2754 17.5508 18.4785C18.2578 18.5957 18.9629 18.7149 19.5645 19.0645C20.9424 17.5908 21.8591 15.7462 22.2016 13.7579C22.5441 11.7697 22.2974 9.72467 21.492 7.87488C20.6866 6.02509 19.3576 4.45133 17.6688 3.34752C15.98 2.24371 14.0052 1.65808 11.9877 1.66279C9.97017 1.66749 7.9981 2.26233 6.31447 3.374C4.63085 4.48568 3.30922 6.06562 2.51245 7.91915C1.71568 9.77268 1.47858 11.8188 1.83035 13.8054C2.18213 15.7921 3.10741 17.6324 4.49219 19.0996Z" fill="white"/>
</g>
<defs>
<clipPath id="clip0_1739_444">
<rect width="24" height="24" fill="white"/>
</clipPath>
</defs>
</svg>
